<?xml version="1.0" encoding="utf-8"?>
<!-- Generator: Adobe Illustrator 28.2.0, SVG Export Plug-In . SVG Version: 6.00 Build 0)  -->
<svg version="1.1" id="Layer_1" xmlns="http://www.w3.org/2000/svg" xmlns:xlink="http://www.w3.org/1999/xlink" x="0px" y="0px"
	 viewBox="0 0 25 25" style="enable-background:new 0 0 25 25;" xml:space="preserve">
<style type="text/css">
	.st0{fill:#FFFFFF;}
</style>
<g>
	<g transform="scale(5.12,5.12)">
		<path class="st0" d="M3.5,2.4c0-0.3-0.2-0.5-0.2-0.5s0.1-0.3,0-0.5C3.2,1.5,3,1.6,2.9,1.7c0,0-0.2-0.1-0.4-0.1S2,1.7,2,1.7
			C1.9,1.6,1.7,1.5,1.6,1.5c-0.1,0.1,0,0.5,0,0.5S1.4,2.1,1.4,2.4c0,0.8,0.8,0.8,0.8,0.8S2.1,3.3,2,3.4c-0.1,0-0.1,0-0.2,0
			c-0.2,0-0.3-0.2-0.3-0.2c0-0.1-0.1-0.1-0.2-0.1c-0.1,0-0.1,0-0.1,0.1s0.1,0.1,0.1,0.1c0.1,0.1,0.1,0.4,0.5,0.4c0,0,0.1,0,0.2,0
			c0,0.1,0,0.2,0,0.2C2,3.9,2,4,2,4C2,4,2,4,2,4c0,0,0,0,0,0c0,0,0,0,0,0c0,0,0,0,0.1,0c0,0,0.1,0,0.1,0c0.1,0,0.1,0,0.2,0
			c0.1,0,0.3,0,0.4-0.1c0,0,0,0,0,0c0,0,0-0.1,0-0.1c0,0,0,0,0,0c0-0.1,0-0.1,0-0.2c0-0.1,0-0.1,0-0.2c0,0,0-0.1,0-0.1
			c0-0.2-0.1-0.3-0.1-0.3S3.5,3.2,3.5,2.4z"/>
	</g>
</g>
</svg>
